#N canvas -8 -8 1920 997 10;
#X obj 447 214 bng 15 250 50 0 empty empty empty 17 7 0 10 -262144
-1 -1;
#X obj 347 256 metro 18000;
#X obj 464 278 metro 7000;
#X obj 354 334 delay 6000;
#X msg 264 378 1200 6000;
#X msg 377 378 500 6000;
#X obj 315 456 line;
#X floatatom 309 509 5 0 0 0 - - -, f 5;
#X obj 222 544 noise~;
#X obj 262 614 bp~;
#X obj 270 667 bp~;
#X obj 511 375 delay 3000;
#X msg 451 454 3 3000;
#X msg 511 493 1 3000;
#X obj 454 519 line;
#X floatatom 449 562 5 0 0 0 - - -, f 5;
#X obj 1350 191 bng 15 250 50 0 empty empty empty 17 7 0 10 -262144
-1 -1;
#X obj 1250 233 metro 18000;
#X obj 1367 255 metro 7000;
#X obj 1257 311 delay 6000;
#X msg 1167 355 1200 6000;
#X msg 1280 355 500 6000;
#X obj 1218 433 line;
#X floatatom 1212 486 5 0 0 0 - - -, f 5;
#X obj 1125 521 noise~;
#X obj 1165 591 bp~;
#X obj 1173 644 bp~;
#X obj 1414 352 delay 3000;
#X msg 1354 431 3 3000;
#X msg 1414 470 1 3000;
#X obj 1357 496 line;
#X floatatom 1352 539 5 0 0 0 - - -, f 5;
#X obj 893 195 bng 15 250 50 0 empty empty empty 17 7 0 10 -262144
-1 -1;
#X obj 793 237 metro 18000;
#X obj 910 259 metro 7000;
#X obj 800 315 delay 6000;
#X msg 710 359 1200 6000;
#X msg 823 359 500 6000;
#X obj 761 437 line;
#X floatatom 755 490 5 0 0 0 - - -, f 5;
#X obj 668 525 noise~;
#X obj 708 595 bp~;
#X obj 716 648 bp~;
#X obj 957 356 delay 3000;
#X msg 897 435 3 3000;
#X msg 957 474 1 3000;
#X obj 900 500 line;
#X floatatom 895 543 5 0 0 0 - - -, f 5;
#X obj 713 763 *~ 0.2;
#X obj 708 871 dac~;
#X obj 902 59 loadbang;
#X connect 0 0 1 0;
#X connect 0 0 2 0;
#X connect 1 0 3 0;
#X connect 1 0 4 0;
#X connect 2 0 11 0;
#X connect 2 0 12 0;
#X connect 3 0 5 0;
#X connect 4 0 6 0;
#X connect 5 0 6 0;
#X connect 6 0 7 0;
#X connect 7 0 9 1;
#X connect 7 0 10 1;
#X connect 8 0 9 0;
#X connect 8 0 10 0;
#X connect 10 0 48 0;
#X connect 11 0 13 0;
#X connect 12 0 14 0;
#X connect 13 0 14 0;
#X connect 14 0 15 0;
#X connect 15 0 9 2;
#X connect 15 0 10 2;
#X connect 16 0 17 0;
#X connect 16 0 18 0;
#X connect 17 0 19 0;
#X connect 17 0 20 0;
#X connect 18 0 27 0;
#X connect 18 0 28 0;
#X connect 19 0 21 0;
#X connect 20 0 22 0;
#X connect 21 0 22 0;
#X connect 22 0 23 0;
#X connect 23 0 25 1;
#X connect 23 0 26 1;
#X connect 24 0 25 0;
#X connect 24 0 26 0;
#X connect 26 0 48 0;
#X connect 27 0 29 0;
#X connect 28 0 30 0;
#X connect 29 0 30 0;
#X connect 30 0 31 0;
#X connect 31 0 25 2;
#X connect 31 0 26 2;
#X connect 32 0 33 0;
#X connect 32 0 34 0;
#X connect 33 0 35 0;
#X connect 33 0 36 0;
#X connect 34 0 43 0;
#X connect 34 0 44 0;
#X connect 35 0 37 0;
#X connect 36 0 38 0;
#X connect 37 0 38 0;
#X connect 38 0 39 0;
#X connect 39 0 41 1;
#X connect 39 0 42 1;
#X connect 40 0 41 0;
#X connect 40 0 42 0;
#X connect 42 0 48 0;
#X connect 43 0 45 0;
#X connect 44 0 46 0;
#X connect 45 0 46 0;
#X connect 46 0 47 0;
#X connect 47 0 41 2;
#X connect 47 0 42 2;
#X connect 48 0 49 0;
#X connect 48 0 49 1;
#X connect 50 0 0 0;
#X connect 50 0 32 0;
#X connect 50 0 16 0;
